<svg xmlns="http://www.w3.org/2000/svg" viewBox="0 0 15.304 15.304">
    <defs>
        <style>
            .cls-1{opacity:.801}.cls-2{stroke:#000;stroke-width:.6px}
        </style>
    </defs>
    <g id="Group_3254" class="cls-1" data-name="Group 3254" transform="translate(.3 .3)">
        <g id="Group_3253" data-name="Group 3253">
            <path id="Path_555" d="M7.352 0A7.352 7.352 0 1 0 14.7 7.352 7.362 7.362 0 0 0 7.352 0zm0 14.133a6.781 6.781 0 1 1 6.781-6.781 6.782 6.782 0 0 1-6.781 6.781z" class="cls-2" data-name="Path 555"/>
            <path id="Path_556" d="M31.2 25.5a.3.3 0 0 0-.3.3v4.429a.3.3 0 0 0 .594 0v-4.455a.283.283 0 0 0-.294-.274z" class="cls-2" data-name="Path 556" transform="translate(-23.845 -19.678)"/>
            <path id="Path_557" d="M30.5 17.6a.507.507 0 0 0-.5.5.5.5 0 1 0 1 0 .492.492 0 0 0-.5-.5z" class="cls-2" data-name="Path 557" transform="translate(-23.15 -13.582)"/>
        </g>
    </g>
</svg>
